HIERARCHY
ROOT root
{
	OFFSET	0	13.1	24.9
	CHANNELS 6  Xposition Yposition Zposition Xrotation Yrotation Zrotation
	JOINT spine_1
	{
		OFFSET	0	9.99999	0
		CHANNELS 3  Xrotation Yrotation Zrotation
		JOINT spine_2
		{
			OFFSET	0	112	-10
			CHANNELS 3  Xrotation Yrotation Zrotation
			JOINT spine_3
			{
				OFFSET	0	206.5	19.3
				CHANNELS 3  Xrotation Yrotation Zrotation
				JOINT spine_4
				{
					OFFSET	0	110.4	14.6
					CHANNELS 3  Xrotation Yrotation Zrotation
					JOINT neck_1
					{
						OFFSET	0	71.8	-50.3
						CHANNELS 3  Xrotation Yrotation Zrotation
						JOINT neck_2
						{
							OFFSET	0	86.2	-25.8
							CHANNELS 3  Xrotation Yrotation Zrotation
							JOINT head_ee
							{
								OFFSET	0	179.8	-8.7
								CHANNELS 3  Xrotation Yrotation Zrotation
								End Site
								{
									OFFSET	1	0	0
								}
							}
						}
					}
					JOINT left_clavicle
					{
						OFFSET	-43.2	22.4	-70.8
						CHANNELS 3  Xrotation Yrotation Zrotation
						JOINT left_shoulder
						{
							OFFSET	-93.9	-5.79999	48.7
							CHANNELS 3  Xrotation Yrotation Zrotation
							JOINT left_elbow
							{
								OFFSET	-291.4	-30.8	15.2
								CHANNELS 3  Xrotation Yrotation Zrotation
								JOINT left_lowarm_twist
								{
									OFFSET	-110.7	-3.89999	13.6
									CHANNELS 3  Xrotation Yrotation Zrotation
									JOINT left_hand
									{
										OFFSET	-110.7	-3.89999	13.6
										CHANNELS 3  Xrotation Yrotation Zrotation
										JOINT left_ee
										{
											OFFSET	-80.8	-5.10001	12.1
											CHANNELS 3  Xrotation Yrotation Zrotation
											End Site
											{
												OFFSET	1	0	0
											}
										}
									}
								}
							}
						}
					}
					JOINT right_clavicle
					{
						OFFSET	43.2	22.4	-70.8
						CHANNELS 3  Xrotation Yrotation Zrotation
						JOINT right_shoulder
						{
							OFFSET	93.9	-5.79999	48.7
							CHANNELS 3  Xrotation Yrotation Zrotation
							JOINT right_elbow
							{
								OFFSET	291.4	-30.8	15.2
								CHANNELS 3  Xrotation Yrotation Zrotation
								JOINT right_lowarm_twist
								{
									OFFSET	110.7	-3.89999	13.6
									CHANNELS 3  Xrotation Yrotation Zrotation
									JOINT right_hand
									{
										OFFSET	110.7	-3.89999	13.6
										CHANNELS 3  Xrotation Yrotation Zrotation
										JOINT right_ee
										{
											OFFSET	80.8	-5.10001	12.1
											CHANNELS 3  Xrotation Yrotation Zrotation
											End Site
											{
												OFFSET	1	0	0
											}
										}
									}
								}
							}
						}
					}
				}
			}
		}
	}
	JOINT left_hip
	{
		OFFSET	-82.8	-127.5	0.300001
		CHANNELS 3  Xrotation Yrotation Zrotation
		JOINT left_knee
		{
			OFFSET	-28.2	-396.7	2.2
			CHANNELS 3  Xrotation Yrotation Zrotation
			JOINT left_ankle
			{
				OFFSET	-11.7	-411.3	35.4
				CHANNELS 3  Xrotation Yrotation Zrotation
				JOINT left_toes
				{
					OFFSET	0	-60	-88.6
					CHANNELS 3  Xrotation Yrotation Zrotation
					JOINT left_foot_ee
					{
						OFFSET	-22.5	-16.5	-42.2
						CHANNELS 3  Xrotation Yrotation Zrotation
						End Site
						{
							OFFSET	1	0	0
						}
					}
				}
			}
		}
	}
	JOINT right_hip
	{
		OFFSET	82.8	-127.5	0.300001
		CHANNELS 3  Xrotation Yrotation Zrotation
		JOINT right_knee
		{
			OFFSET	28.2	-396.7	2.2
			CHANNELS 3  Xrotation Yrotation Zrotation
			JOINT right_ankle
			{
				OFFSET	11.7	-411.3	35.4
				CHANNELS 3  Xrotation Yrotation Zrotation
				JOINT right_toes
				{
					OFFSET	0	-60	-88.6
					CHANNELS 3  Xrotation Yrotation Zrotation
					JOINT right_foot_ee
					{
						OFFSET	22.5	-16.5	-42.2
						CHANNELS 3  Xrotation Yrotation Zrotation
						End Site
						{
							OFFSET	1	0	0
						}
					}
				}
			}
		}
	}
}
MOTION
Frames: 12
Frame Time: 0.02
3890.84 643.715 -375.772 -40.7944 40.1458 32.4104 11.3233 0.0219265 -0.680045 11.3236 0.0651541 -0.677272 11.3222 0.0747332 -0.676282 11.3215 -0.0330083 -0.679598 -16.6742 3.60568 -0.164206 -16.7258 7.01309 1.14513 -0.0 0.0 -0.0 0.983353 15.7781 3.409 -90.2542 -76.5811 12.0073 0.276484 -7.79899 0.0188464 -85.121 -8.46705 5.18159 2.32416 -17.4934 8.09482 -0.0 0.0 -0.0 11.8721 26.9815 -22.9756 -57.3465 60.5097 -44.0705 0.591262 16.3251 -0.0848086 -12.5784 0.608953 -1.48528 -10.4201 -31.0152 50.5906 0.0 0.0 0.0 46.692 6.66806 1.16109 -26.1477 0.172238 3.97423 42.5586 26.0341 -5.44374 -17.0553 0.0 0.0 -0.0 0.0 -0.0 37.9309 0.0209969 -2.66429 -11.8727 -0.303945 -1.79345 36.0948 -26.9881 4.83906 28.3297 -0.0 -0.0 0.0 0.0 0.0 
3888.87 645.285 -379.15 -42.6573 40.4499 33.8966 11.4965 0.0147101 -0.524808 11.4967 0.0480747 -0.522808 11.4959 0.0538845 -0.522242 11.4955 -0.0292689 -0.524198 -16.9533 4.45454 -0.212164 -17.0348 8.67262 1.43092 -0.0 0.0 -0.0 1.18427 15.8086 3.7294 -88.9369 -76.0515 12.0572 0.227592 -6.43266 0.0127894 -85.1205 -8.46698 5.18161 2.17097 -15.4702 7.99929 -0.0 0.0 -0.0 12.3218 26.344 -24.077 -56.2645 59.9732 -45.9845 0.511048 14.2066 -0.0636846 -5.95633 0.247555 -0.719706 -9.50398 -24.7523 52.524 0.0 0.0 0.0 46.239 5.48667 1.60875 -23.0128 0.247706 3.49913 42.8198 25.6125 -5.45212 -17.5173 0.0 0.0 -0.0 0.0 -0.0 39.3284 7.43918 -3.73957 -13.1789 -0.314534 -1.99358 36.9739 -28.215 4.97432 25.6386 -0.0 -0.0 0.0 0.0 0.0 
3876.28 645.042 -392.87 -42.1882 40.8301 33.7659 11.7337 -0.0886075 -0.382037 11.7337 -0.0641181 -0.386901 11.734 -0.0614255 -0.387337 11.7338 -0.121827 -0.372775 -17.3414 6.73869 -2.98866 -17.564 14.5991 -0.259148 -0.0 0.0 -0.0 0.767143 15.3313 3.0247 -90.3264 -74.7658 10.4097 0.299672 -8.44402 0.0221223 -85.1188 -8.46677 5.18165 2.50553 -16.3505 9.85497 -0.0 0.0 -0.0 11.985 23.4863 -23.609 -55.9755 61.6132 -47.6058 0.445852 12.4547 -0.0486508 -9.56538 0.433524 -1.14208 -8.96393 -19.9965 54.2657 0.0 0.0 0.0 44.6141 6.75364 0.350073 -23.3716 0.240389 3.55369 42.6034 22.5501 -5.33188 -16.2415 0.0 0.0 -0.0 0.0 -0.0 40.2214 6.78894 -4.00733 -17.8124 -0.315262 -2.70431 40.5502 -27.5545 5.31152 23.6637 -0.0 -0.0 0.0 0.0 0.0 
3863.1 643.125 -401.48 -42.2142 41.2202 34.6662 11.9087 0.0507675 -0.564561 11.9089 0.0865886 -0.560187 11.9076 0.0887931 -0.559842 11.9071 -0.000736286 -0.566839 -16.7674 3.38738 1.49374 -16.7943 5.66046 2.62361 -0.0 0.0 -0.0 0.127455 12.6622 1.70645 -80.213 -75.4476 19.2007 0.365766 -10.2702 0.0328697 -84.9191 -8.44182 5.18656 2.60912 -16.1481 10.653 -0.0 0.0 -0.0 11.6464 19.622 -23.1509 -59.7122 59.0413 -45.9973 0.550955 15.2659 -0.0738362 -10.5247 0.487412 -1.25233 -9.25916 -19.4956 58.6735 0.0 0.0 0.0 43.8288 5.99729 -0.200674 -24.0228 0.226234 3.65262 42.5147 22.1178 -5.31133 -13.9954 0.0 0.0 -0.0 0.0 -0.0 42.2633 5.48979 -4.71556 -23.5511 -0.236599 -3.58098 42.3008 -25.7934 5.41134 21.1167 -0.0 -0.0 0.0 0.0 0.0 
3862.75 645.495 -411.584 -43.6226 42.0875 37.2375 12.0928 0.0397867 -0.393388 12.0929 0.0647381 -0.390059 12.0922 0.0650153 -0.390013 12.092 0.00260457 -0.395386 -16.3756 4.03558 0.692544 -16.4287 7.3461 2.08346 -0.0 0.0 -0.0 -0.147928 10.6493 1.00769 -82.3515 -75.4954 17.2262 0.457049 -12.7574 0.0510945 -83.9206 -8.31673 5.20982 3.02127 -16.2833 13.4006 -0.0 0.0 -0.0 11.6944 17.7377 -23.3768 -57.5012 57.3315 -49.5801 0.542882 15.0525 -0.0717251 -4.39736 0.175539 -0.533844 -9.09124 -17.9715 59.1048 0.0 0.0 0.0 44.5523 8.69234 -2.33468 -23.0004 0.247953 3.49724 42.3218 21.0463 -5.26448 -16.1594 0.0 0.0 -0.0 0.0 -0.0 41.9379 5.64037 -6.6791 -22.4602 -0.258308 -3.41499 42.6384 -25.8635 5.44477 20.1796 -0.0 -0.0 0.0 0.0 0.0 
3854.83 646.192 -416.145 -42.4404 40.9097 35.9747 12.1863 0.167221 -0.317666 12.1863 0.187096 -0.306381 12.1852 0.186817 -0.306551 12.1851 0.136059 -0.332208 -16.6599 4.38895 -0.595299 -16.7399 8.75978 1.02536 -0.0 0.0 -0.0 -0.0507057 10.9795 1.21275 -80.3442 -74.0744 16.9832 0.446523 -12.4729 0.0487955 -83.8482 -8.30764 5.21142 3.1943 -16.1518 14.6537 -0.0 0.0 -0.0 11.6626 15.7726 -23.399 -58.8875 57.8587 -48.7224 0.533079 14.7927 -0.0692008 -8.178 0.358881 -0.981085 -8.73379 -13.8675 60.9917 0.0 0.0 0.0 44.0816 13.951 -4.07482 -23.6775 0.233879 3.60019 41.7147 15.6716 -5.09448 -13.699 0.0 0.0 -0.0 0.0 -0.0 42.6116 5.09251 -7.02401 -25.256 -0.19635 -3.83951 42.5382 -25.5557 5.4245 19.8991 -0.0 -0.0 0.0 0.0 0.0 
3843.64 647.127 -414.427 -40.8578 38.8526 33.4978 12.3634 0.167392 -0.259274 12.3634 0.183551 -0.248097 12.3626 0.182556 -0.24883 12.3626 0.140967 -0.274538 -18.1936 4.53201 -1.98383 -18.3019 9.78834 -0.0924484 -0.0 0.0 -0.0 0.960314 13.6505 3.17971 -80.1241 -71.866 14.3333 0.396357 -11.1086 0.038544 -84.4634 -8.38479 5.19745 3.30304 -16.2065 15.3773 -0.0 0.0 -0.0 11.7593 13.8792 -23.6836 -60.6616 58.4454 -47.039 0.482339 13.4383 -0.0568256 -11.7578 0.559385 -1.39272 -8.10067 -8.53214 59.8957 0.0 0.0 0.0 44.812 23.7669 -6.79733 -24.2801 0.220332 3.69166 41.0302 6.17786 -4.94713 -10.9794 0.0 0.0 -0.0 0.0 -0.0 43.672 8.89294 -6.40288 -26.9181 -0.149718 -4.09032 42.1588 -25.4146 5.38479 19.0892 -0.0 -0.0 0.0 0.0 0.0 
3820.53 651.171 -416.33 -38.4831 38.4993 30.7682 12.0816 0.197014 -0.0500105 12.0816 0.199797 -0.0373726 12.0815 0.19983 -0.037194 12.0816 0.191448 -0.0682867 -18.7608 4.3783 -2.8178 -18.8683 9.92075 -0.883251 -0.0 0.0 -0.0 2.00115 14.3948 4.93228 -78.3367 -71.1271 15.3851 0.326244 -9.18049 0.0261932 -85.1615 -8.47211 5.18058 3.49353 -13.3943 18.0827 -0.0 0.0 -0.0 11.5916 11.2832 -23.3513 -62.9775 58.2814 -45.0266 0.449285 12.5476 -0.0493939 -16.077 0.835035 -1.87172 -7.64554 -4.97681 58.1234 0.0 0.0 0.0 41.7697 22.2417 -5.21428 -26.2599 0.169056 3.99115 40.9601 7.94558 -4.94706 -9.13409 0.0 0.0 -0.0 0.0 -0.0 44.124 10.9712 -6.28799 -30.3809 -0.0292866 -4.60804 41.3791 -27.0048 5.37014 20.1366 -0.0 -0.0 0.0 0.0 0.0 
3811.87 651.357 -417.37 -37.7429 37.4719 29.9236 12.0212 0.185006 -0.0920311 12.0212 0.190487 -0.0800722 12.0209 0.190643 -0.0797001 12.021 0.175664 -0.108808 -17.3285 4.79794 -3.53261 -17.4374 11.1748 -1.51459 -0.0 0.0 -0.0 2.27995 15.5539 5.45022 -77.7607 -70.1194 13.506 0.321385 -9.04604 0.0254235 -84.7446 -8.41999 5.19079 3.38859 -16.16 15.9924 -0.0 0.0 -0.0 11.3856 10.4051 -22.8949 -63.6725 59.5742 -44.6075 0.399235 11.1872 -0.0391004 -18.3565 0.9949 -2.11587 -7.31844 0.699821 59.6922 0.0 0.0 0.0 41.7109 24.6562 -5.90066 -27.093 0.144389 4.11663 40.3968 5.67875 -4.8924 -6.65874 0.0 0.0 -0.0 0.0 -0.0 45.2406 10.175 -6.12712 -32.519 0.0606326 -4.92379 42.4095 -26.8466 5.46063 18.7377 -0.0 -0.0 0.0 0.0 0.0 
3788.2 653.792 -417.993 -35.8287 38.6552 27.3742 11.9041 0.0281611 -0.0175657 11.9041 0.0292217 -0.0157381 11.9041 0.0292843 -0.0156214 11.9041 0.0264497 -0.0200502 -19.9626 6.79014 -4.05998 -20.2568 15.1478 -0.896498 -0.0 0.0 -0.0 3.16639 18.3848 6.95051 -77.2401 -67.5681 13.741 0.394026 -11.0448 0.0380962 -85.1496 -8.47062 5.18088 3.58987 -14.8936 18.0247 -0.0 0.0 -0.0 11.2325 8.98648 -22.5534 -67.5595 59.4378 -41.5362 0.341073 9.59018 -0.0286113 -21.0114 1.19321 -2.39203 -6.04315 9.77044 51.3561 0.0 0.0 0.0 35.2296 29.6402 -3.22208 -21.8133 0.269688 3.31637 40.143 0.287001 -4.88617 -5.7906 0.0 0.0 -0.0 0.0 -0.0 44.6777 11.3739 -3.70241 -36.1904 0.242361 -5.4576 38.4933 -25.7746 5.04566 19.4082 -0.0 -0.0 0.0 0.0 0.0 
3786.42 655.996 -419.873 -36.393 38.2022 29.2642 11.851 -0.153222 -0.334396 11.851 -0.131633 -0.343468 11.8516 -0.129949 -0.344109 11.8515 -0.182664 -0.319268 -17.9571 5.47175 -4.42463 -18.1083 12.9247 -2.02403 -0.0 0.0 -0.0 3.90268 18.0536 8.07296 -79.0033 -66.634 11.086 0.418851 -11.722 0.0429961 -85.1718 -8.4734 5.18033 3.70718 -16.1693 18.2074 -0.0 0.0 -0.0 11.0073 8.60236 -22.0529 -66.3624 57.8363 -42.8514 0.389017 10.9078 -0.0371425 -19.399 1.07124 -2.22539 -6.0175 8.35233 50.2394 0.0 0.0 0.0 38.6792 32.75 -6.69773 -24.8296 0.207136 3.77497 40.1665 -0.569405 -4.89463 -2.5952 0.0 0.0 -0.0 0.0 -0.0 46.1005 12.1605 -5.79085 -30.2298 -0.0351942 -4.5856 38.1823 -26.5897 5.04172 19.1117 -0.0 -0.0 0.0 0.0 0.0 
3778.77 658.216 -423.349 -35.8879 37.3724 28.45 11.7911 -0.222906 -0.302683 11.7911 -0.203194 -0.316254 11.7921 -0.201314 -0.317454 11.7921 -0.248923 -0.281676 -19.0515 6.52864 -4.50411 -19.3007 14.9303 -1.53837 -0.0 0.0 -0.0 4.11092 16.6144 8.3873 -78.0385 -65.865 10.7652 0.458299 -12.7911 0.0513707 -82.2477 -8.10623 5.24384 3.70058 -18.2017 17.1205 -0.0 0.0 -0.0 10.9679 6.72949 -21.9449 -68.7414 58.1019 -40.4257 0.301582 8.49704 -0.0224036 -22.4671 1.30734 -2.53951 -5.50793 14.2922 48.2961 0.0 0.0 0.0 38.967 37.3584 -7.42085 -24.9249 0.204768 3.7894 40.0004 -1.51107 -4.88876 -2.25771 0.0 0.0 -0.0 0.0 -0.0 44.6622 9.77389 -4.8808 -26.0996 -0.173592 -3.96697 38.0241 -23.4727 4.92891 16.4529 -0.0 -0.0 0.0 0.0 0.0 
